<?xml version="1.0" encoding="iso-8859-1"?>
<!-- Generator: Adobe Illustrator 19.0.0, SVG Export Plug-In . SVG Version: 6.00 Build 0)  -->
<svg version="1.1" id="Layer_1" xmlns="http://www.w3.org/2000/svg" xmlns:xlink="http://www.w3.org/1999/xlink" x="0px" y="0px"
	 viewBox="0 0 512 512" style="enable-background:new 0 0 512 512;" xml:space="preserve">
<path style="fill:#FF991F;" d="M139.505,502H56.716V401.796c0-9.324,7.558-16.882,16.882-16.882h49.024
	c9.324,0,16.882,7.558,16.882,16.882V502H139.505z"/>
<path style="fill:#FFD41D;" d="M297.986,502h-82.788V317.825c0-9.324,7.558-16.882,16.882-16.882h49.024
	c9.324,0,16.882,7.558,16.882,16.882V502z"/>
<path style="fill:#92E03F;" d="M456.466,502h-82.788V173.536c0-9.324,7.558-16.882,16.882-16.882h49.024
	c9.324,0,16.882,7.558,16.882,16.882L456.466,502L456.466,502z"/>
<path d="M488.399,492h-21.933V173.536c0-14.823-12.06-26.882-26.882-26.882H390.56c-14.823,0-26.882,12.06-26.882,26.882V492
	h-55.692V317.825c0-14.823-12.059-26.882-26.882-26.882H232.08c-14.823,0-26.882,12.06-26.882,26.882V492h-55.692v-90.204
	c0-14.823-12.06-26.882-26.882-26.882H73.599c-14.823,0-26.882,12.06-26.882,26.882V492H23.601c-5.523,0-10,4.477-10,10
	s4.477,10,10,10h464.798c5.523,0,10-4.477,10-10S493.922,492,488.399,492z M66.716,492v-90.204c0-3.795,3.087-6.882,6.882-6.882
	h49.024c3.795,0,6.882,3.087,6.882,6.882V492H66.716z M225.197,492V317.825c0-3.795,3.087-6.882,6.882-6.882h49.024
	c3.794,0,6.882,3.087,6.882,6.882V492H225.197z M383.678,492V173.536c0-3.795,3.087-6.882,6.882-6.882h49.024
	c3.795,0,6.882,3.087,6.882,6.882V492H383.678z"/>
<path d="M109.346,278.418c2.559,0,5.119-0.976,7.071-2.929L289.115,102.79l37.28,37.28c3.905,3.905,10.237,3.905,14.143,0
	L446.466,34.143v33.81c0,5.523,4.477,10,10,10s10-4.477,10-10V11c0-0.163-0.017-0.322-0.024-0.484
	c0.14-2.729-0.82-5.504-2.904-7.588s-4.859-3.045-7.588-2.904C455.789,0.017,455.63,0,455.466,0h-60.5c-5.523,0-10,4.477-10,10
	s4.477,10,10,10h37.357l-98.857,98.858l-37.28-37.28c-1.875-1.875-4.419-2.929-7.071-2.929s-5.196,1.054-7.071,2.929
	l-179.769,179.77c-3.905,3.905-3.905,10.237,0,14.143C104.228,277.442,106.787,278.418,109.346,278.418z"/>
<circle cx="75.64" cy="303.31" r="10"/>
<g>
</g>
<g>
</g>
<g>
</g>
<g>
</g>
<g>
</g>
<g>
</g>
<g>
</g>
<g>
</g>
<g>
</g>
<g>
</g>
<g>
</g>
<g>
</g>
<g>
</g>
<g>
</g>
<g>
</g>
</svg>
