<?xml version="1.0" encoding="iso-8859-1"?>
<!-- Generator: Adobe Illustrator 19.0.0, SVG Export Plug-In . SVG Version: 6.00 Build 0)  -->
<svg version="1.1" id="Capa_1" xmlns="http://www.w3.org/2000/svg" xmlns:xlink="http://www.w3.org/1999/xlink" x="0px" y="0px"
	 viewBox="0 0 512.002 512.002" style="enable-background:new 0 0 512.002 512.002;" xml:space="preserve">
<g transform="matrix(1.25 0 0 -1.25 0 45)">
	<path style="fill:#77B255;" d="M409.601-373.601v22.755c0,37.705-30.561,68.266-68.266,68.266H159.291
		c-37.695,0-68.266-30.561-68.266-68.266v-22.755H409.601z"/>
	<path style="fill:#3E721D;" d="M250.313-350.845c8.727,0,56.889,34.133,56.889,68.266H193.425
		C193.425-316.712,241.587-350.845,250.313-350.845"/>
	<path style="fill:#AF7E57;" d="M200.702-283.012c0-32.381,99.214-33.701,99.214,0v42.655h-99.214V-283.012z"/>
	<path style="fill:#9B6A49;" d="M200.613-259.511c13.836-15.633,30.993-19.866,49.652-19.866c18.648,0,35.806,4.244,49.652,19.866
		v39.72h-99.304V-259.511z"/>
	<g>
		<path style="fill:#AF7E57;" d="M175.724-145.316c0-16.475-8.351-29.832-18.648-29.832c-10.297,0-18.648,13.357-18.648,29.832
			s8.351,29.844,18.648,29.844C167.373-115.472,175.724-128.841,175.724-145.316"/>
		<path style="fill:#AF7E57;" d="M362.191-145.316c0-16.475-8.34-29.832-18.648-29.832c-10.297,0-18.637,13.357-18.637,29.832
			s8.34,29.844,18.637,29.844C353.85-115.472,362.191-128.841,362.191-145.316"/>
		<path style="fill:#AF7E57;" d="M153.347-156.963c0,63.59,43.418,115.154,96.972,115.154s96.961-51.564,96.961-115.154
			s-43.406-115.154-96.961-115.154S153.347-220.554,153.347-156.963"/>
	</g>
	<path style="fill:#915A34;" d="M250.313-234.813c-31.334,0-40.96,8.021-42.564,9.648c-2.913,2.913-2.913,7.635,0,10.547
		c2.822,2.822,7.339,2.89,10.263,0.262c0.591-0.421,8.204-5.541,32.301-5.541c25.031,0,32.268,5.518,32.335,5.575
		c2.913,2.901,7.475,2.765,10.388-0.171c2.913-2.913,2.753-7.759-0.159-10.672C291.273-226.791,281.647-234.813,250.313-234.813"/>
	<g>
		<path style="fill:#60352A;" d="M250.313-3.592c64.262,0,104.425-47.423,104.425-86.938s-8.033-55.33-16.065-39.515
			c-8.033,15.803-16.065,31.607-16.065,31.607s-48.196,0-64.262,15.815c0,0,24.098-47.423-24.098,0c0,0,8.033-31.618-40.163,7.896
			c0,0-24.098-15.803-32.13-55.318c-2.23-10.968-16.065,0-16.065,39.515C145.888-51.014,178.02-3.592,250.313-3.592"/>
		<path style="fill:#60352A;" d="M204.802-157.424L204.802-157.424c-6.258,0-11.378,5.12-11.378,11.378v11.378
			c0,6.258,5.12,11.378,11.378,11.378s11.378-5.12,11.378-11.378v-11.378C216.18-152.304,211.06-157.424,204.802-157.424"/>
		<path style="fill:#60352A;" d="M295.824-157.424L295.824-157.424c-6.258,0-11.378,5.12-11.378,11.378v11.378
			c0,6.258,5.12,11.378,11.378,11.378c6.258,0,11.378-5.12,11.378-11.378v-11.378C307.202-152.304,302.082-157.424,295.824-157.424"
			/>
	</g>
	<path style="fill:#915A34;" d="M258.847-188.713H241.78c-4.699,0-8.533,3.834-8.533,8.533c0,4.699,3.834,8.533,8.533,8.533h17.067
		c4.699,0,8.533-3.834,8.533-8.533C267.38-184.879,263.546-188.713,258.847-188.713"/>
	<g>
		<path style="fill:#3B88C3;" d="M182.047-373.601h-34.133v91.022h34.133V-373.601z"/>
		<path style="fill:#3B88C3;" d="M352.713-373.601H318.58v91.022h34.133V-373.601z"/>
		<path style="fill:#3B88C3;" d="M352.713-362.223H149.336v-11.378h203.377V-362.223z"/>
	</g>
	<g>
		<path style="fill:#C1694F;" d="M341.335-64.124c0-15.019-35.18-25.031-91.022-25.031c-55.853,0-91.022,10.012-91.022,25.031
			C159.291-23.779,204.802,36,219.969,36c15.178,0,25.293-20.025,30.344-20.025c5.051,0,15.167,20.025,30.344,20.025
			C295.824,36,341.335-23.779,341.335-64.124"/>
		<path style="fill:#C1694F;" d="M408.935-55.025c0-18.853-39.822-68.266-159.288-68.266S90.358-73.877,90.358-55.025
			s77.596,11.378,159.288,11.378S408.935-36.172,408.935-55.025"/>
	</g>
	<path style="fill:#292F33;" d="M341.335-64.124c0-15.019-35.18-25.031-91.022-25.031c-55.853,0-91.022,10.012-91.022,25.031
		c0,6.44,1.16,13.369,3.174,20.48C189.636-66.4,310.99-66.4,338.172-43.701C340.175-50.79,341.335-57.708,341.335-64.124"/>
	<path style="fill:#C1694F;" d="M79.647-325.246c0,7.851-6.372,14.222-14.222,14.222c-7.851,0-14.222-6.372-14.222-14.222v-48.355
		h28.444V-325.246z"/>
	<g>
		<path style="fill:#66757F;" d="M113.812-222.846c0-26.738-21.663-48.39-48.39-48.39s-48.39,21.652-48.39,48.39
			c0,0.979-17.032,0.955-17.032,0c0-36.136,29.298-65.422,65.422-65.422s65.422,29.286,65.422,65.422
			C130.844-221.89,113.812-221.867,113.812-222.846"/>
		<path style="fill:#66757F;" d="M17.07-222.846c0-4.71-3.823-8.533-8.533-8.533s-8.533,3.823-8.533,8.533v96.711
			c0,4.71,3.823,8.533,8.533,8.533s8.533-3.823,8.533-8.533V-222.846z"/>
		<path style="fill:#66757F;" d="M130.847-222.846c0-4.71-3.823-8.533-8.533-8.533c-4.71,0-8.533,3.823-8.533,8.533v96.711
			c0,4.71,3.823,8.533,8.533,8.533c4.71,0,8.533-3.823,8.533-8.533V-222.846z"/>
		<path style="fill:#66757F;" d="M73.959-316.712c0-4.71-3.823-8.533-8.533-8.533c-4.71,0-8.533,3.823-8.533,8.533v190.577
			c0,4.71,3.823,8.533,8.533,8.533c4.71,0,8.533-3.823,8.533-8.533V-316.712z"/>
	</g>
</g>
<g>
</g>
<g>
</g>
<g>
</g>
<g>
</g>
<g>
</g>
<g>
</g>
<g>
</g>
<g>
</g>
<g>
</g>
<g>
</g>
<g>
</g>
<g>
</g>
<g>
</g>
<g>
</g>
<g>
</g>
</svg>
