<?xml version="1.0" encoding="iso-8859-1"?>
<!-- Generator: Adobe Illustrator 19.0.0, SVG Export Plug-In . SVG Version: 6.00 Build 0)  -->
<svg version="1.1" id="Capa_1" xmlns="http://www.w3.org/2000/svg" xmlns:xlink="http://www.w3.org/1999/xlink" x="0px" y="0px"
	 viewBox="0 0 512 512" style="enable-background:new 0 0 512 512;" xml:space="preserve">
<path style="fill:#715539;" d="M341.122,104.252h-30v-22.6c0-26.727,8.896-53.172,25.05-74.465l23.9,18.132
	c-12.22,16.108-18.95,36.115-18.95,56.333L341.122,104.252L341.122,104.252z"/>
<path style="fill:#FF4F19;" d="M376.122,306.252c-17.36,0-34.48-3.928-50-11.42c-15.52,7.492-32.64,11.42-50,11.42
	c-63.412,0-115-51.589-115-115s51.589-115,115-115c17.361,0,34.48,3.928,50,11.419c15.52-7.492,32.639-11.419,50-11.419
	c63.411,0,115,51.589,115,115S439.533,306.252,376.122,306.252z"/>
<path style="fill:#EE2500;" d="M376.122,76.252c-17.361,0-34.48,3.928-50,11.419l0,0v207.161l0,0c15.52,7.492,32.64,11.42,50,11.42
	c63.411,0,115-51.589,115-115S439.533,76.252,376.122,76.252z"/>
<path style="fill:#A17852;" d="M94.392,148.918l-15.98-15.98C59.513,114.04,47.104,89.049,43.469,62.57l29.721-4.08
	c2.75,20.032,12.137,38.937,26.434,53.234l15.98,15.98L94.392,148.918z"/>
<path style="fill:#00AD00;" d="M131.161,350.131c-29.453,0.003-58.895-11.207-81.317-33.629
	c-21.721-21.72-33.683-50.599-33.683-81.317c0-30.717,11.962-59.597,33.683-81.317c12.276-12.276,27.159-21.604,43.43-27.281
	c5.676-16.271,15.004-31.154,27.281-43.43l0,0l0,0c21.72-21.721,50.599-33.683,81.317-33.683s59.597,11.962,81.317,33.683
	c21.721,21.72,33.684,50.599,33.684,81.317s-11.963,59.597-33.684,81.317c-12.274,12.275-27.158,21.604-43.43,27.281
	c-5.677,16.272-15.005,31.155-27.281,43.431C190.062,338.919,160.606,350.129,131.161,350.131z"/>
<path style="fill:#6BCD00;" d="M201.872,49.475c-30.718,0-59.597,11.962-81.317,33.683c-12.276,12.276-21.604,27.159-27.281,43.43
	l0,0l146.485,146.485l0,0c16.271-5.677,31.155-15.005,43.43-27.281c21.721-21.72,33.684-50.599,33.684-81.317
	s-11.963-59.597-33.684-81.317C261.469,61.437,232.589,49.475,201.872,49.475z"/>
<path style="fill:#FFEC97;" d="M512,324.813H0v-120h512V324.813z"/>
<rect x="256" y="204.81" style="fill:#FFC473;" width="256" height="120"/>
<circle style="fill:#715539;" cx="447" cy="264.81" r="15"/>
<circle style="fill:#A17852;" cx="65" cy="264.81" r="15"/>
<path style="fill:#FFD400;" d="M512,414.813H0v-120h512V414.813z"/>
<rect x="256" y="294.81" style="fill:#FF9A00;" width="256" height="120"/>
<path style="fill:#FFEC97;" d="M512,504.813H0v-120h512V504.813z"/>
<rect x="256" y="384.81" style="fill:#FFC473;" width="256" height="120"/>
<circle style="fill:#715539;" cx="447" cy="444.81" r="15"/>
<circle style="fill:#A17852;" cx="65" cy="444.81" r="15"/>
<circle style="fill:#715539;" cx="447" cy="354.81" r="15"/>
<circle style="fill:#A17852;" cx="65" cy="354.81" r="15"/>
<g>
</g>
<g>
</g>
<g>
</g>
<g>
</g>
<g>
</g>
<g>
</g>
<g>
</g>
<g>
</g>
<g>
</g>
<g>
</g>
<g>
</g>
<g>
</g>
<g>
</g>
<g>
</g>
<g>
</g>
</svg>
