<?xml version="1.0" encoding="iso-8859-1"?>
<!-- Generator: Adobe Illustrator 19.0.0, SVG Export Plug-In . SVG Version: 6.00 Build 0)  -->
<svg version="1.1" id="Capa_1" xmlns="http://www.w3.org/2000/svg" xmlns:xlink="http://www.w3.org/1999/xlink" x="0px" y="0px"
	 viewBox="0 0 510.668 510.668" style="enable-background:new 0 0 510.668 510.668;" xml:space="preserve">
<path style="fill:#84DBFF;" d="M296.845,426.667c-117.333,0-213.333-96-213.333-213.333S179.512,0,296.845,0
	s213.333,96,213.333,213.333C510.178,331.733,414.178,426.667,296.845,426.667z"/>
<path style="fill:#F2F2F2;" d="M296.845,389.333c-97.067,0-174.933-78.933-174.933-174.933c0-97.067,78.933-174.933,174.933-174.933
	c97.067,0,174.933,78.933,174.933,174.933S393.912,389.333,296.845,389.333z"/>
<path style="fill:#E4EAEF;" d="M296.845,60.8c92.8,0,169.6,72.533,174.933,164.267c0-3.2,1.067-7.467,1.067-10.667
	c-1.067-97.067-78.933-174.933-176-174.933S121.912,118.4,121.912,214.4c0,3.2,0,7.467,1.067,10.667
	C128.312,133.333,204.045,60.8,296.845,60.8z"/>
<g>
	<path style="fill:#CDD6E0;" d="M296.845,59.733c-2.133,0-4.267,2.133-4.267,4.267v23.467c0,2.133,2.133,4.267,4.267,4.267
		s4.267-2.133,4.267-4.267V64C301.112,61.867,300.045,59.733,296.845,59.733z"/>
	<path style="fill:#CDD6E0;" d="M296.845,336c-2.133,0-4.267,2.133-4.267,4.267v23.467c0,2.133,2.133,4.267,4.267,4.267
		s4.267-2.133,4.267-4.267v-23.467C301.112,338.133,300.045,336,296.845,336z"/>
	<path style="fill:#CDD6E0;" d="M451.512,214.4c0-2.133-2.133-4.267-4.267-4.267h-23.467c-2.133,0-4.267,2.133-4.267,4.267
		s2.133,4.267,4.267,4.267h23.467C449.378,218.667,451.512,216.533,451.512,214.4z"/>
	<path style="fill:#CDD6E0;" d="M175.245,214.4c0-2.133-2.133-4.267-4.267-4.267h-23.467c-2.133,0-4.267,2.133-4.267,4.267
		s2.133,4.267,4.267,4.267h23.467C173.112,218.667,175.245,216.533,175.245,214.4z"/>
</g>
<path style="fill:#40596B;" d="M127.245,363.733c-69.333-68.267-158.933-182.4-115.2-226.133l44.8-44.8c12.8-12.8,35.2-12.8,48,0
	l54.4,54.4c12.8,12.8,12.8,35.2,0,48l-32,32l0,0c43.733,60.8,96,113.067,156.8,156.8l0,0l32-32c12.8-12.8,35.2-12.8,48,0l54.4,54.4
	c12.8,12.8,12.8,35.2,0,48l-44.8,44.8c-43.733,43.733-157.867-46.933-226.133-115.2C140.045,377.6,133.645,371.2,127.245,363.733z"
	/>
<g>
	<path style="fill:#FF7058;" d="M418.445,406.4l-54.4-54.4c-12.8-12.8-35.2-12.8-48,0l-11.733,11.733l102.4,102.4l11.733-11.733
		C432.312,441.6,432.312,420.267,418.445,406.4z"/>
	<path style="fill:#FF7058;" d="M159.245,147.2l-54.4-54.4c-12.8-12.8-35.2-12.8-48,0l-11.733,11.733l102.4,102.4l11.733-11.733
		C172.045,181.333,172.045,160,159.245,147.2z"/>
</g>
<g>
	<path style="fill:#ACB3BA;" d="M244.578,220.8v-10.667c25.6-19.2,33.067-25.6,33.067-33.067c0-5.333-5.333-8.533-10.667-8.533
		c-7.467,0-12.8,3.2-17.067,7.467l-7.467-8.533c6.4-7.467,14.933-10.667,24.533-10.667c13.867,0,24.533,7.467,24.533,20.267
		c0,10.667-8.533,20.267-25.6,32h25.6V220.8H244.578z"/>
	<path style="fill:#ACB3BA;" d="M328.845,220.8V208h-29.867v-10.667l24.533-39.467h18.133v38.4h9.6V208h-8.533v12.8H328.845z
		 M328.845,169.6l-17.067,26.667h17.067V169.6z"/>
	<path style="fill:#ACB3BA;" d="M240.312,270.933v-17.067h-19.2v17.067h-8.533V230.4h8.533v16h19.2v-16h8.533v40.533H240.312z"/>
	<path style="fill:#ACB3BA;" d="M255.245,250.667c0-11.733,8.533-21.333,21.333-21.333c11.733,0,21.333,8.533,21.333,21.333
		S289.378,272,276.578,272S255.245,262.4,255.245,250.667z M288.312,250.667c0-7.467-5.333-12.8-12.8-12.8s-12.8,5.333-12.8,12.8
		c0,7.467,5.333,12.8,12.8,12.8C284.045,263.467,288.312,258.133,288.312,250.667z"/>
	<path style="fill:#ACB3BA;" d="M303.245,254.933V230.4h8.533v24.533c0,5.333,3.2,9.6,9.6,9.6s9.6-4.267,9.6-9.6V230.4h9.6v24.533
		c0,9.6-6.4,17.067-18.133,17.067C309.645,272,303.245,264.533,303.245,254.933z"/>
	<path style="fill:#ACB3BA;" d="M371.512,270.933L362.978,256h-6.4v14.933h-8.533V230.4h19.2c8.533,0,13.867,5.333,13.867,12.8
		s-4.267,10.667-8.533,11.733l9.6,14.933h-10.667V270.933z M372.578,243.2c0-3.2-2.133-5.333-6.4-5.333h-9.6v10.667h9.6
		C369.378,248.533,372.578,246.4,372.578,243.2z"/>
</g>
<g>
</g>
<g>
</g>
<g>
</g>
<g>
</g>
<g>
</g>
<g>
</g>
<g>
</g>
<g>
</g>
<g>
</g>
<g>
</g>
<g>
</g>
<g>
</g>
<g>
</g>
<g>
</g>
<g>
</g>
</svg>
